<?xml version="1.0" encoding="UTF-8"?>
<svg xmlns="http://www.w3.org/2000/svg" xmlns:xlink="http://www.w3.org/1999/xlink" width="40px" height="40px" viewBox="0 0 40 40" version="1.1">
<g id="surface1">
<path style=" stroke:none;fill-rule:nonzero;fill:rgb(0%,0%,0%);fill-opacity:1;" d="M 16.800781 2.398438 C 9.324219 2.398438 3.199219 8.523438 3.199219 16 C 3.199219 23.476562 9.324219 29.601562 16.800781 29.601562 C 19.761719 29.601562 22.5 28.628906 24.742188 27.003906 L 35.269531 37.53125 L 37.53125 35.269531 L 27.101562 24.835938 C 29.148438 22.453125 30.398438 19.367188 30.398438 16 C 30.398438 8.523438 24.277344 2.398438 16.800781 2.398438 Z M 16.800781 4 C 23.402344 4 28.800781 9.394531 28.800781 16 C 28.800781 22.605469 23.402344 28 16.800781 28 C 10.195312 28 4.800781 22.605469 4.800781 16 C 4.800781 9.394531 10.195312 4 16.800781 4 Z M 16.800781 4 "/>
</g>
</svg>
